<svg xmlns="http://www.w3.org/2000/svg" width="32.96" height="32.96" viewBox="0 0 32.96 32.96">
  <g id="Group_8" data-name="Group 8" transform="translate(227.5 -8922.5)">
    <path id="Shape" d="M0,16.48A16.48,16.48,0,1,1,16.48,32.96,16.5,16.5,0,0,1,0,16.48Z" transform="translate(-227.5 8922.5)" fill="#f41d25"/>
    <path id="Shape-2" data-name="Shape" d="M12.647,13.8a1.145,1.145,0,0,1-.813-.337L.337,1.963A1.15,1.15,0,1,1,1.963.337l11.5,11.5a1.15,1.15,0,0,1-.813,1.963Z" transform="translate(-218.302 8931.698)" fill="#fff"/>
    <path id="Shape-3" data-name="Shape" d="M1.15,13.8a1.15,1.15,0,0,1-.813-1.963l11.5-11.5A1.15,1.15,0,0,1,13.46,1.963l-11.5,11.5a1.145,1.145,0,0,1-.813.337Z" transform="translate(-218.302 8931.698)" fill="#fff"/>
  </g>
</svg>
