<svg xmlns="http://www.w3.org/2000/svg" width="16.341" height="16.341" viewBox="0 0 16.341 16.341">
  <path id="Icon_awesome-fingerprint" data-name="Icon awesome-fingerprint" d="M8.175,7.85a.766.766,0,0,0-.766.766,23.338,23.338,0,0,1-.884,6.752A.766.766,0,1,0,8,15.782,24.7,24.7,0,0,0,8.94,8.616a.766.766,0,0,0-.766-.766ZM8.147,5.242A3.192,3.192,0,0,0,4.855,8.468a20.94,20.94,0,0,1-.427,4.55.766.766,0,1,0,1.5.31,22.47,22.47,0,0,0,.459-4.884A1.663,1.663,0,0,1,8.125,6.774a1.847,1.847,0,0,1,1.839,1.77,25.659,25.659,0,0,1-.339,4.582.766.766,0,1,0,1.511.249A27.225,27.225,0,0,0,11.5,8.52,3.391,3.391,0,0,0,8.147,5.242ZM4.615,4.61a.767.767,0,0,0-1.077.111A5.536,5.536,0,0,0,2.3,8.3a18.535,18.535,0,0,1-.291,3.576.766.766,0,1,0,1.508.272,20.075,20.075,0,0,0,.315-3.872,3.944,3.944,0,0,1,.894-2.584A.766.766,0,0,0,4.615,4.61ZM8.108,2.621a5.7,5.7,0,0,0-1.461.159A.766.766,0,1,0,7,4.271a4.581,4.581,0,0,1,1.085-.118,4.468,4.468,0,0,1,4.433,4.3,28.121,28.121,0,0,1-.178,3.627.766.766,0,0,0,1.522.175,29.652,29.652,0,0,0,.188-3.825,6.011,6.011,0,0,0-5.942-5.8ZM16.154,6.5a.766.766,0,1,0-1.5.33,7.959,7.959,0,0,1,.15,1.966.766.766,0,0,0,.76.772h.006a.766.766,0,0,0,.766-.76A9.484,9.484,0,0,0,16.154,6.5Zm-1.28-2.9A8.49,8.49,0,0,0,8.069,0a7.994,7.994,0,0,0-5.82,2.327A7.612,7.612,0,0,0,0,7.872l0,.685a.766.766,0,0,0,.743.788H.767A.766.766,0,0,0,1.532,8.6l.005-.755a6.089,6.089,0,0,1,1.8-4.436A6.468,6.468,0,0,1,8.047,1.533,6.953,6.953,0,0,1,13.62,4.482a.766.766,0,1,0,1.253-.88Z" transform="translate(-0.001)" fill="#fff"/>
</svg>
