<svg id="Group_2" data-name="Group 2" xmlns="http://www.w3.org/2000/svg" width="18" height="16" viewBox="0 0 22 16">
  <g id="user">
    <path id="Shape" d="M0,12.371C.027,10.135,4.339,8.9,6.5,8.9s6.467,1.234,6.5,3.47A7.727,7.727,0,0,1,6.5,16,7.728,7.728,0,0,1,0,12.371ZM3.25,3.38A3.32,3.32,0,0,1,6.5,0,3.32,3.32,0,0,1,9.75,3.38,3.316,3.316,0,0,1,6.5,6.761,3.316,3.316,0,0,1,3.25,3.38Z" fill="#fff"/>
  </g>
  <g id="swap" transform="translate(11)">
    <path id="Shape-2" data-name="Shape" d="M2.455,0,0,2.4,2.455,4.8V3H6.769V1.8H2.455Z" transform="translate(0 3.2)" fill="#fff"/>
    <path id="Shape-3" data-name="Shape" d="M6.769,2.4,4.314,0V1.8H0V3H4.314V4.8Z" transform="translate(4.231)" fill="#fff"/>
  </g>
</svg>
